<svg width="171" height="40" viewBox="0 0 171 40" fill="none" xmlns="http://www.w3.org/2000/svg">
<rect x="130.256" width="40" height="40" fill="#D90E3E"/>
<rect x="1" y="1" width="128.256" height="38" stroke="#D90E3E" stroke-width="2"/>
<path d="M19.4935 24.3688C24.1653 24.3688 24.8953 22.1789 24.8953 21.1674V21.0006H21.8294C21.7877 21.1778 21.5583 22.2728 19.2746 22.2728C17.1889 22.2728 16.6675 21.1778 16.6675 20.3436V20.2185C16.6675 19.3529 17.1264 18.404 19.2641 18.404C21.5166 18.404 21.7564 19.3842 21.819 19.5928H24.8953V19.4572C24.8953 18.4561 24.207 16.3184 19.4935 16.3184H19.0868C14.2482 16.3184 13.6017 18.6855 13.6017 20.1663V20.4687C13.6017 21.9391 14.3212 24.3688 19.0868 24.3688H19.4935Z" fill="#D90E3E"/>
<path d="M29.0871 18.3518H32.4867C33.1541 18.3518 33.3835 18.6438 33.3835 19.0088V19.0192C33.3835 19.3946 33.1436 19.6866 32.4867 19.6866H29.0871V18.3518ZM29.0871 21.5637H31.9236C33.0915 21.5637 33.4982 22.0225 33.4982 22.9089V23.8161C33.4982 24.0351 33.519 24.1394 33.592 24.2228H36.6162V24.1707C36.5432 24.0351 36.4702 23.837 36.4702 23.2947V22.1476C36.4702 21.1466 35.8341 20.5209 34.8747 20.3019C35.4587 20.1663 36.4389 19.6971 36.4389 18.5708V18.4561C36.4389 17.1943 35.4378 16.4644 33.1749 16.4644H26.1255V24.2228H29.0871V21.5637Z" fill="#D90E3E"/>
<path d="M37.8082 16.4644V24.2228H46.474V22.2832H40.7281V21.2195H46.2758V19.3321L40.7281 19.3321V18.3623L46.3905 18.3623V16.4644L37.8082 16.4644Z" fill="#D90E3E"/>
<path d="M54.285 21.0318H51.7093L52.9815 18.3623L54.285 21.0318ZM55.8388 24.2228H59.0819L55.0254 16.4644H51.0419L47.2043 24.2228L50.2076 24.2228L50.802 22.9715H55.2339L55.8388 24.2228Z" fill="#D90E3E"/>
<path d="M61.44 24.2228H64.4015V18.5812H67.7489V16.4644H58.0925V18.5812H61.44V24.2228Z" fill="#D90E3E"/>
<path d="M69.0374 16.4644V24.2228H77.7032V22.2832H71.9573V21.2195H77.505V19.3321H71.9573V18.3623H77.6197V16.4644H69.0374Z" fill="#D90E3E"/>
<path d="M79.0806 24.2228H84.597C89.2167 24.2228 90.1865 22.2102 90.1865 20.4479V20.135C90.1865 18.3101 89.0602 16.4644 84.5866 16.4644H79.0806V24.2228ZM82.0421 18.4978H84.2425C86.8286 18.4978 87.1102 19.6136 87.1102 20.2915V20.354C87.1102 21.0318 86.8286 22.1685 84.2425 22.1685H82.0421V18.4978Z" fill="#D90E3E"/>
<path d="M95.1035 24.2228H102.445C104.979 24.2228 105.719 23.2009 105.719 21.9808V21.8557C105.719 20.4896 104.624 20.0308 103.936 19.8639C104.447 19.7492 105.271 19.3112 105.271 18.3414V18.2267C105.271 17.3403 104.666 16.4644 102.403 16.4644L95.1035 16.4644V24.2228ZM101.506 18.2267C102.122 18.2267 102.299 18.4561 102.299 18.7585V18.7794C102.299 19.0714 102.122 19.3216 101.506 19.3216H98.0651V18.2267L101.506 18.2267ZM101.694 21.0631C102.455 21.0631 102.612 21.3655 102.612 21.6992V21.7305C102.612 22.0329 102.466 22.3979 101.694 22.3979H98.0651V21.0631H101.694Z" fill="#D90E3E"/>
<path d="M109.67 24.2228H112.631V21.3238L116.782 16.4644H113.538L111.234 19.1444L108.971 16.4644H105.425L109.67 21.303V24.2228Z" fill="#D90E3E"/>
<path fill-rule="evenodd" clip-rule="evenodd" d="M138.461 17.8545H144.623V28.8444H154.208V28.0388H154.191C149.034 28.0388 144.829 23.9792 144.829 19.0017C144.829 15.349 147.093 12.1916 150.336 10.769H138.461V17.8545ZM154.208 26.644V25.5234L154.17 25.5239C150.445 25.5239 147.406 22.5911 147.406 18.9944C147.406 15.3991 150.445 12.4658 154.17 12.4658L160.36 12.4637V11.3583L154.179 11.3515C149.816 11.3515 146.258 14.7869 146.258 18.998C146.258 23.2091 149.816 26.644 154.179 26.644H154.208ZM154.208 24.5867V23.7817H154.155C151.421 23.7817 149.191 21.6289 149.191 18.9897C149.191 16.3504 151.421 14.1976 154.155 14.1976L160.36 14.1945V13.3968L154.162 13.3973C150.97 13.3973 148.366 15.9106 148.366 18.9917C148.366 22.0729 150.97 24.5867 154.162 24.5867H154.208ZM154.208 23.0759V22.448L154.143 22.4464C152.169 22.4464 150.558 20.8923 150.558 18.986C150.558 17.0792 152.169 15.5245 154.143 15.5245L160.36 15.5282V14.9023L154.149 14.8997C151.817 14.8997 149.914 16.736 149.914 18.9881C149.914 21.2397 151.817 23.0759 154.149 23.0759H154.208ZM154.208 21.8812V21.3645H154.135C152.775 21.3645 151.666 20.2946 151.666 18.9823C151.666 17.6701 152.775 16.6002 154.135 16.6002L160.36 16.5981V16.0866L154.139 16.0882C152.486 16.0882 151.138 17.3885 151.138 18.9844C151.138 20.5793 152.486 21.8807 154.139 21.8807H154.208V21.8812ZM154.208 20.9455V17.8545H160.36V17.0176L154.394 17.0144V17.0688C154.327 17.0624 154.259 17.0593 154.192 17.0594C153.084 17.0594 152.179 17.9318 152.179 19.0017C152.179 20.0726 153.083 20.9455 154.192 20.9455H154.208Z" fill="#1B2D44"/>
</svg>
