<svg width="232" height="70" viewBox="0 0 232 70" fill="none" xmlns="http://www.w3.org/2000/svg">
<path d="M88.4287 70H48.3333L63.2237 0H103.333L100.22 14.499H78.2697L75.7229 26.4158H95.3617L92.3621 40.9119H72.712L69.5992 55.4982H91.5443L88.4287 70Z" fill="#D90E3E"/>
<path d="M135.218 70H98.3333L112.864 0H130.579L119.169 54.7379H138.333L135.218 70Z" fill="#D90E3E"/>
<path d="M159.976 70H141.667L156.691 0H175L159.976 70Z" fill="#D90E3E"/>
<path d="M217.177 70H197.898L195.288 50.5704L183.035 70H165L188.448 34.4692L180.864 0H198.651L202.082 18.7622L213.637 0H231.666L209.093 34.7621L217.177 70Z" fill="#D90E3E"/>
<path d="M18.1503 70H0L14.8955 0H55L51.8867 14.499H29.9411L27.3939 26.4158H47.0357L44.0357 40.9119H24.3768L18.1503 70Z" fill="#D90E3E"/>
</svg>
