<svg width="216" height="60" viewBox="0 0 216 60" fill="none" xmlns="http://www.w3.org/2000/svg">
<path d="M167.78 1.51825L174.344 27.2701C174.552 28.0292 174.314 29.1679 173.868 29.8102L152.722 58.8613C152.247 59.5036 152.544 60 153.316 60H167.839C168.641 60 169.651 59.4744 170.067 58.8029L181.145 42.0438C181.59 41.4015 182.036 41.489 182.184 42.2482L185.214 58.5985C185.362 59.3577 186.134 60 186.907 60H201.4C202.202 60 202.677 59.3869 202.499 58.6277L195.341 29.9854C195.163 29.2263 195.371 28.0876 195.846 27.4453L215.003 1.28467C215.478 0.642336 215.211 0.145985 214.409 0.145985L199.885 0.175182C199.084 0.175182 198.104 0.70073 197.658 1.37226L188.451 15.4745C188.035 16.1168 187.56 16.0292 187.441 15.2701L185.065 1.57664C184.946 0.817518 184.174 0.175182 183.372 0.175182H168.849C168.077 0.145985 167.602 0.759124 167.78 1.51825ZM147.851 0.116788C147.05 0.116788 146.248 0.729927 146.07 1.48905L132.467 58.5985C132.289 59.3577 132.794 59.9708 133.566 59.9708L146.07 60C146.871 60 147.673 59.3869 147.851 58.6277L161.484 1.51825C161.662 0.759124 161.157 0.145985 160.355 0.145985H147.851V0.116788ZM105.351 1.45985L91.7189 58.5693C91.5407 59.3285 92.0456 59.9416 92.8178 59.9416L121.953 59.9708C122.755 59.9708 123.676 59.3869 124.032 58.6861L129.556 47.708C129.913 47.0073 129.556 46.4234 128.755 46.4234L111.44 46.3942C110.638 46.3942 110.133 45.781 110.311 45.0219L120.736 1.45985C120.914 0.70073 120.409 0.0875912 119.607 0.0875912H107.103C106.331 0.0875912 105.559 0.70073 105.351 1.45985ZM57.3266 1.40146L43.6944 58.5109C43.5162 59.2701 44.0211 59.8832 44.7933 59.8832L78.8589 59.9124C79.6608 59.9124 80.5815 59.3285 80.9379 58.6277L86.4621 47.6496C86.8185 46.9489 86.4621 46.365 85.6602 46.365L63.4151 46.3358C62.6132 46.3358 62.1083 45.7226 62.3162 44.9635L64.217 37.0219C64.3952 36.2628 65.1971 35.6496 65.9989 35.6496H79.6311C80.433 35.6496 81.3537 35.0657 81.7101 34.365L86.7294 24.4088C87.0858 23.708 86.7294 23.1241 85.9275 23.1241L68.9986 23.0949C68.1967 23.0949 67.6918 22.4818 67.87 21.7226L69.4738 14.9489C69.652 14.1898 70.4539 13.5766 71.2558 13.5766L91.9268 13.6058C92.7287 13.6058 93.3524 12.9635 93.3227 12.2044L93.0554 1.51825C93.0257 0.729927 92.3723 0.0875912 91.5704 0.0875912L59.1086 0.0291971C58.3067 0.0291971 57.5048 0.642336 57.3266 1.40146ZM13.668 1.37226L0.0357729 58.4818C-0.142426 59.2409 0.36247 59.854 1.16436 59.854H13.668C14.4699 59.854 15.2718 59.2409 15.45 58.4818L20.5583 36.9927C20.7365 36.2336 21.5384 35.6204 22.3403 35.6204H37.9327C38.7346 35.6204 39.5959 35.0073 39.8335 34.2774L43.2489 24.4088C43.5162 23.6788 43.0707 23.0657 42.2688 23.0657H25.3103C24.5084 23.0657 24.0035 22.4234 24.1817 21.6934L25.7855 14.9197C25.9637 14.1606 26.7656 13.5474 27.5675 13.5474L48.2385 13.5766C49.0404 13.5766 49.6641 12.9343 49.6344 12.146L49.4265 1.45985C49.3968 0.671533 48.7434 0.0291971 47.9415 0.0291971L15.45 0C14.6481 0 13.8462 0.613139 13.668 1.37226Z" fill="#E4051F"/>
</svg>
