<?xml version="1.0" standalone="no"?>
<!DOCTYPE svg PUBLIC "-//W3C//DTD SVG 20010904//EN"
 "http://www.w3.org/TR/2001/REC-SVG-20010904/DTD/svg10.dtd">
<svg version="1.0" xmlns="http://www.w3.org/2000/svg"
 width="1184.000000pt" height="1184.000000pt" viewBox="0 0 1184.000000 1184.000000"
 preserveAspectRatio="xMidYMid meet">
<metadata>
Created by potrace 1.14, written by Peter Selinger 2001-2017
</metadata>
<g transform="translate(0.000000,1184.000000) scale(0.100000,-0.100000)"
fill="#000000" stroke="none">
<path d="M4 10771 c-2 -2 -4 -861 -4 -1909 l0 -1904 25 4 c14 3 28 1 31 -4 3
-4 10 -6 15 -2 10 6 115 7 159 1 14 -2 29 -1 35 2 13 7 103 4 115 -4 6 -3 10
-3 10 2 0 7 97 7 160 0 14 -2 29 -1 34 1 8 4 98 5 114 1 4 -1 11 0 17 1 15 3
126 1 155 -3 14 -2 29 -1 35 2 13 7 103 4 115 -4 6 -3 10 -3 10 2 0 7 97 7
160 0 14 -2 29 -1 34 1 8 4 98 5 114 1 4 -1 11 0 17 1 15 3 126 1 155 -3 14
-2 29 -1 35 2 13 7 103 4 115 -4 6 -3 10 -3 10 2 0 7 97 7 160 0 14 -2 29 -1
34 1 8 4 98 5 114 1 4 -1 11 0 17 1 15 3 126 1 155 -3 14 -2 29 -1 35 2 13 7
103 4 115 -4 6 -3 10 -3 10 2 0 7 97 7 160 0 14 -2 29 -1 34 1 8 4 98 5 114 1
4 -1 11 0 17 1 15 3 126 1 155 -3 14 -2 29 -1 35 2 13 7 103 4 115 -4 6 -3 10
-3 10 2 0 8 105 7 163 0 15 -3 30 -1 32 3 3 4 20 4 39 0 19 -4 39 -4 45 -1 13
8 91 4 100 -5 3 -3 6 -1335 6 -2960 l0 -2954 2596 0 2595 0 -3 33 c-2 17 -4
39 -3 47 0 8 0 29 -1 45 -1 17 -1 35 0 40 6 58 6 87 0 91 -4 2 -4 17 -1 32 4
15 7 34 6 42 -1 8 -2 31 -3 50 l-1 35 -103 1 c-92 1 -277 11 -367 19 -128 12
-185 18 -260 29 -19 3 -55 8 -80 12 -25 3 -67 10 -95 16 -27 5 -59 11 -70 13
-11 1 -20 3 -20 4 0 2 -16 4 -35 6 -19 2 -66 11 -105 20 -38 9 -77 18 -85 20
-41 8 -157 40 -265 72 -66 19 -124 36 -130 37 -5 1 -23 7 -40 13 -62 23 -70
26 -86 29 -19 4 -303 118 -399 160 -121 53 -462 230 -511 265 -15 10 -32 19
-37 19 -6 0 -12 3 -14 8 -4 9 -107 72 -118 72 -5 0 -10 3 -12 8 -1 4 -49 38
-104 75 -56 37 -112 77 -124 87 -13 11 -26 20 -29 20 -3 0 -17 10 -31 23 -14
12 -41 33 -60 46 -19 13 -39 29 -45 35 -5 7 -28 25 -50 41 -22 17 -45 35 -51
40 -6 6 -39 35 -74 65 -143 124 -388 367 -474 472 -11 13 -41 48 -66 78 -26
30 -56 66 -66 79 -11 13 -24 28 -29 35 -6 6 -22 27 -35 46 -13 19 -27 37 -30
40 -13 10 -90 120 -90 127 0 5 -9 15 -20 23 -11 8 -20 18 -20 23 0 8 -57 96
-69 107 -3 3 -13 16 -21 30 -7 14 -42 72 -77 129 -35 58 -63 111 -63 118 0 7
-4 13 -9 13 -17 0 -260 510 -253 532 1 5 -2 8 -8 8 -6 0 -9 3 -8 7 1 7 -7 30
-29 83 -3 8 -7 20 -9 25 -1 6 -21 61 -43 123 -22 63 -40 117 -39 120 1 4 -4
21 -11 37 -7 17 -14 37 -16 45 -2 8 -8 35 -15 60 -7 25 -14 52 -16 60 -2 8 -8
33 -14 55 -14 50 -39 160 -46 200 -2 17 -7 37 -9 45 -2 8 -7 29 -10 45 -2 17
-7 40 -9 51 -9 45 -26 165 -40 289 -32 271 -36 642 -10 940 3 44 8 94 9 110 1
17 3 30 4 30 2 0 4 16 6 35 5 62 21 168 40 263 3 15 7 37 9 50 11 58 50 221
73 307 14 52 26 100 27 105 4 20 69 220 74 230 4 6 7 15 8 20 3 19 79 209 140
350 10 22 18 42 19 45 1 6 122 246 151 300 11 19 22 37 27 38 4 2 7 9 7 14 0
11 53 100 137 230 24 37 43 72 43 77 0 6 3 11 8 11 4 0 18 17 32 38 49 74 195
269 264 352 215 257 403 444 680 675 27 22 54 45 60 50 6 6 38 30 71 55 33 24
65 48 70 53 6 4 42 30 80 57 39 27 75 53 80 57 6 5 28 20 50 33 22 13 42 28
43 32 2 4 8 8 13 8 6 0 36 17 67 38 165 108 525 298 652 345 13 5 13 6 0 7
-31 4 -6402 5 -6406 1z"/>
<path d="M8490 10477 c-3 -3 -79 -8 -170 -11 -91 -4 -183 -9 -205 -11 -22 -2
-65 -7 -95 -10 -30 -3 -68 -8 -85 -10 -16 -3 -48 -7 -70 -11 -22 -3 -51 -7
-65 -9 -52 -6 -277 -51 -301 -60 -8 -2 -27 -7 -44 -10 -38 -8 -60 -13 -60 -15
0 -2 -12 -5 -50 -13 -11 -3 -40 -11 -65 -18 -54 -15 -51 -14 -70 -21 -8 -4
-40 -14 -70 -23 -320 -96 -725 -290 -1047 -502 -118 -77 -344 -241 -363 -262
-3 -3 -23 -21 -45 -40 -211 -179 -411 -381 -552 -556 -26 -34 -54 -67 -60 -75
-27 -32 -62 -78 -109 -145 -27 -38 -52 -71 -56 -73 -5 -2 -8 -8 -8 -14 0 -5
-11 -24 -25 -42 -14 -18 -25 -38 -25 -44 0 -6 -3 -12 -7 -14 -9 -3 -106 -164
-144 -238 -13 -25 -28 -48 -34 -52 -5 -4 -7 -8 -3 -8 4 0 -6 -22 -22 -50 -16
-27 -27 -50 -24 -50 3 0 -4 -13 -16 -30 -12 -16 -19 -30 -15 -30 3 0 -2 -15
-12 -32 -9 -18 -18 -35 -18 -38 -1 -3 -12 -27 -24 -55 -33 -72 -119 -302 -127
-337 -1 -5 -3 -10 -4 -13 -1 -3 -3 -8 -4 -12 -1 -5 -8 -26 -15 -48 -14 -47
-61 -222 -67 -248 -2 -10 -5 -26 -8 -35 -4 -15 -13 -62 -21 -117 -2 -11 -4
-20 -5 -20 -3 0 -8 -30 -14 -75 -2 -19 -5 -35 -6 -35 -2 0 -8 -40 -15 -105 -3
-25 -7 -58 -9 -75 -25 -191 -25 -616 -1 -845 12 -123 21 -189 33 -252 5 -27 7
-48 4 -48 -2 0 1 -7 8 -15 7 -8 10 -15 8 -15 -3 0 -1 -21 4 -47 5 -27 11 -59
14 -73 5 -39 85 -322 95 -342 5 -10 7 -18 3 -18 -3 0 -1 -7 6 -15 7 -8 10 -15
7 -15 -3 0 0 -15 8 -34 8 -18 11 -36 8 -40 -4 -3 -1 -6 6 -6 7 0 9 -4 6 -10
-3 -5 -1 -10 4 -10 6 0 10 -3 10 -7 -1 -5 0 -10 1 -13 1 -3 3 -12 5 -20 7 -32
119 -289 176 -402 151 -302 370 -625 594 -877 115 -129 424 -427 472 -455 9
-4 23 -16 33 -26 31 -31 219 -170 230 -170 5 0 10 -4 10 -9 0 -4 27 -25 60
-45 33 -20 65 -42 72 -49 7 -7 24 -18 38 -25 30 -14 63 -35 70 -43 3 -3 12 -9
20 -12 8 -4 29 -15 45 -25 17 -10 53 -31 80 -46 28 -16 56 -33 63 -38 6 -6 12
-8 12 -4 0 4 12 -1 26 -11 38 -24 296 -145 384 -178 41 -16 78 -34 82 -40 4
-5 8 -7 8 -3 0 4 50 -11 110 -33 97 -34 331 -105 379 -114 9 -2 17 -4 19 -5 1
-2 10 -3 20 -4 9 -1 28 -6 40 -10 13 -4 34 -9 45 -11 12 -2 33 -6 47 -9 65
-15 127 -26 153 -28 15 -1 27 -5 27 -8 0 -3 12 -5 28 -6 37 -1 155 -15 162
-19 5 -3 92 -12 200 -20 25 -2 113 -6 197 -9 139 -5 152 -4 152 12 1 9 1 49 1
87 -1 39 -1 75 0 80 3 131 2 214 -4 223 -4 7 -3 12 1 12 10 0 9 58 0 67 -3 3
-2 16 3 29 5 13 6 24 2 24 -4 0 -6 16 -4 35 l4 35 -108 1 c-60 0 -127 2 -149
4 -106 7 -201 16 -215 20 -22 6 -130 19 -165 19 -16 1 -32 3 -35 7 -3 3 -45
13 -95 23 -126 24 -118 23 -240 57 -60 16 -114 31 -120 32 -5 2 -14 5 -20 8
-5 4 -23 9 -40 13 -43 11 -215 74 -246 91 -14 8 -29 12 -33 8 -3 -3 -6 -1 -6
5 0 7 -7 12 -15 12 -8 0 -59 21 -113 47 -53 26 -100 47 -104 46 -3 -1 -12 4
-18 12 -7 8 -17 15 -22 15 -5 0 -41 19 -81 41 -40 23 -81 47 -92 53 -54 30
-180 111 -183 118 -2 5 -10 8 -18 8 -8 0 -14 5 -14 10 0 6 -6 10 -14 10 -8 0
-16 4 -18 8 -1 4 -25 23 -53 42 -27 19 -52 37 -55 40 -3 3 -36 30 -75 61 -119
95 -145 119 -300 275 -165 165 -187 189 -260 284 -27 36 -52 67 -55 70 -18 17
-110 149 -110 158 0 6 -4 12 -8 14 -8 3 -92 125 -92 134 0 2 -17 32 -38 66
-21 35 -44 78 -51 96 -7 17 -17 32 -22 32 -5 0 -9 6 -9 14 0 7 -11 33 -24 57
-14 24 -50 105 -81 179 -31 74 -60 143 -66 152 -5 10 -9 26 -9 36 0 10 -4 22
-8 28 -5 5 -17 36 -26 69 -10 33 -21 71 -26 85 -5 14 -12 39 -16 55 -4 17 -8
32 -9 35 -8 30 -48 200 -50 215 -2 11 -9 49 -16 85 -6 36 -13 83 -15 105 -2
22 -6 51 -9 65 -12 56 -18 187 -18 395 -1 185 6 360 13 360 1 0 3 18 5 40 3
42 13 118 22 170 3 17 7 39 8 50 7 48 58 262 76 318 11 34 22 71 24 82 2 11 4
21 6 23 1 1 3 7 4 12 1 6 4 12 5 15 1 3 3 8 4 13 1 6 25 73 43 122 3 8 7 20 9
25 1 6 14 37 29 70 14 33 33 78 42 100 26 60 171 344 183 355 3 3 23 34 44 70
22 36 43 67 48 68 4 2 8 9 8 16 0 7 8 21 18 32 9 11 33 42 51 69 33 46 76 103
154 199 115 143 349 376 482 481 27 21 55 44 61 50 6 5 22 17 34 25 13 8 30
23 39 33 8 9 21 17 27 17 7 0 14 4 16 8 5 12 198 140 311 207 107 62 370 195
387 195 6 0 18 4 28 10 26 14 99 45 167 69 33 12 67 24 75 28 8 3 20 7 27 9
16 3 84 24 103 31 19 8 17 7 70 21 25 7 61 17 80 22 59 16 160 40 193 45 18 3
55 10 82 15 28 6 64 12 80 15 17 2 48 7 70 10 22 3 58 8 80 10 22 2 64 6 94
10 29 3 96 8 147 10 51 2 98 6 103 9 5 4 12 2 15 -3 3 -5 21 -5 41 -1 19 4 35
4 35 -1 0 -5 10 -5 23 -1 28 9 48 9 65 -2 7 -4 18 -3 25 2 12 9 44 8 54 -1 2
-3 18 -1 34 3 16 5 31 5 34 0 3 -5 16 -6 28 -2 28 9 48 9 65 -2 7 -4 18 -3 25
2 12 9 44 8 54 -1 2 -3 17 -2 32 3 15 4 35 4 44 -1 10 -6 18 -5 22 1 5 8 11 7
21 -1 11 -9 14 -9 14 0 0 8 5 9 19 1 14 -7 22 -7 26 0 5 8 11 7 21 -1 11 -9
14 -9 14 0 0 8 5 9 19 1 14 -7 22 -7 26 0 5 8 11 7 21 -1 11 -9 14 -9 14 0 0
8 5 9 19 1 14 -7 22 -7 26 0 5 8 11 7 21 -1 11 -9 14 -9 14 0 0 8 5 9 19 1 14
-7 22 -7 26 0 5 8 11 7 21 -1 11 -9 14 -9 14 0 0 8 5 9 19 1 14 -7 22 -7 26 0
5 8 11 7 21 -1 11 -9 14 -9 14 0 0 8 5 9 19 1 14 -7 22 -7 26 0 5 8 11 7 21
-1 11 -9 14 -9 14 0 0 8 5 9 19 1 14 -7 22 -7 26 0 5 8 11 7 21 -1 11 -9 14
-9 14 0 0 8 5 9 17 3 9 -6 29 -6 45 -2 15 5 30 5 33 0 3 -5 16 -6 28 -2 28 9
48 9 65 -2 7 -4 18 -3 25 2 12 9 44 8 54 -1 2 -3 18 -1 34 3 16 5 31 5 34 0 3
-5 16 -6 28 -2 28 9 48 9 65 -2 7 -4 18 -3 25 2 12 9 44 8 54 -1 2 -3 18 -1
34 3 16 5 31 5 34 0 3 -5 16 -6 28 -2 28 9 48 9 65 -2 7 -4 18 -3 25 2 12 9
44 8 54 -1 2 -3 18 -1 34 3 16 5 31 5 34 0 3 -5 16 -6 28 -2 28 9 48 9 65 -2
7 -4 18 -3 25 2 12 9 44 8 54 -1 2 -3 18 -1 34 3 16 5 31 5 34 0 3 -5 16 -6
28 -2 28 9 48 9 65 -2 7 -4 18 -3 25 2 12 9 44 8 54 -1 2 -3 17 -2 32 3 15 4
35 4 44 -1 10 -6 18 -5 22 1 5 8 11 7 21 -1 11 -9 14 -9 14 0 0 8 5 9 19 1 14
-7 22 -7 26 0 5 8 11 7 21 -1 11 -9 14 -9 14 0 0 8 5 9 19 1 14 -7 22 -7 26 0
5 8 11 7 21 -1 11 -9 14 -9 14 0 0 8 5 9 19 1 14 -7 22 -7 26 0 5 8 11 7 21
-1 11 -9 14 -9 14 0 0 8 5 9 19 1 14 -7 22 -7 26 0 5 8 11 7 21 -1 11 -9 14
-9 14 0 0 8 5 9 19 1 14 -7 22 -7 26 0 5 8 11 7 21 -1 11 -9 14 -9 14 0 0 8 5
9 19 1 14 -7 22 -7 26 0 5 8 11 7 21 -1 11 -9 14 -9 14 0 0 8 5 9 19 1 14 -7
22 -7 26 0 5 8 11 7 21 -1 11 -9 14 -9 14 0 0 8 5 9 17 3 9 -6 29 -6 45 -2 15
5 30 5 33 0 3 -5 16 -6 28 -2 28 9 48 9 65 -2 7 -4 18 -3 25 2 11 8 21 9 52 2
6 -1 20 -2 33 -1 l22 1 0 296 c0 194 -3 293 -10 289 -5 -3 -10 -3 -10 2 0 10
-93 8 -109 -1 -6 -4 -11 -2 -11 4 0 8 -6 8 -20 0 -11 -6 -20 -7 -20 -3 0 10
-93 8 -109 -1 -6 -4 -11 -4 -11 1 0 8 -229 7 -262 -1 -10 -2 -18 -1 -18 2 0 8
-434 6 -462 -2 -10 -2 -18 -1 -18 2 0 8 -434 6 -462 -2 -10 -2 -18 -1 -18 2 0
8 -434 6 -462 -2 -10 -2 -18 -1 -18 2 0 8 -434 6 -462 -2 -10 -2 -18 -1 -18 2
0 7 -353 5 -382 -2 -10 -2 -18 -1 -18 2 0 9 -95 7 -109 -2 -6 -4 -11 -2 -11 4
0 8 -6 8 -20 0 -11 -6 -20 -7 -20 -3 0 10 -93 8 -109 -1 -6 -4 -11 -2 -11 4 0
8 -6 8 -20 0 -11 -6 -20 -7 -20 -3 0 9 -93 8 -108 -1 -6 -3 -12 -1 -14 5 -2 5
-6 8 -8 6z"/>
<path d="M8248 9364 c-3 -2 -31 -6 -64 -9 -72 -6 -131 -13 -164 -20 -14 -2
-43 -7 -65 -10 -22 -4 -53 -9 -70 -12 -16 -3 -38 -6 -47 -6 -10 -1 -18 -4 -18
-7 0 -3 -8 -6 -17 -6 -30 -2 -76 -12 -169 -40 -49 -14 -93 -27 -99 -28 -5 -2
-17 -6 -25 -9 -8 -3 -46 -15 -85 -28 -38 -12 -74 -25 -80 -28 -5 -4 -44 -20
-85 -36 -83 -32 -272 -125 -365 -180 -33 -19 -68 -38 -77 -41 -10 -4 -18 -10
-18 -15 0 -5 -4 -9 -10 -9 -8 0 -110 -65 -145 -93 -5 -4 -46 -35 -90 -67 -90
-68 -178 -143 -249 -212 -26 -27 -49 -48 -51 -48 -5 0 -75 -72 -75 -77 0 -2
-19 -23 -42 -46 -24 -24 -55 -58 -69 -77 -15 -19 -35 -44 -45 -55 -35 -39
-114 -145 -114 -154 0 -5 -4 -11 -9 -13 -11 -4 -121 -174 -121 -187 0 -5 -4
-11 -8 -13 -21 -8 -211 -401 -227 -468 -2 -8 -18 -53 -35 -100 -17 -47 -30
-85 -30 -85 1 0 -1 -7 -4 -15 -6 -18 -36 -137 -42 -165 -2 -11 -8 -42 -14 -70
-6 -27 -12 -60 -15 -73 -2 -12 -7 -27 -11 -34 -5 -7 -3 -8 6 -3 9 5 11 4 6 -3
-4 -7 -9 -22 -12 -34 -4 -21 -6 -41 -19 -158 -3 -25 -7 -98 -10 -162 -2 -65
-6 -122 -10 -128 -3 -5 -3 -10 2 -10 4 0 8 -33 9 -73 1 -81 10 -214 19 -267 3
-19 7 -48 9 -65 7 -54 27 -168 30 -174 2 -3 7 -22 10 -41 3 -19 13 -60 21 -90
9 -30 18 -62 20 -70 2 -8 4 -15 5 -15 1 0 3 -11 6 -24 7 -36 100 -280 140
-368 20 -43 37 -80 37 -83 1 -3 25 -47 54 -98 29 -52 53 -98 53 -103 0 -5 5
-9 10 -9 6 0 10 -5 10 -10 0 -10 123 -199 155 -238 7 -9 46 -57 86 -107 86
-106 116 -139 229 -250 107 -106 111 -109 240 -215 30 -25 57 -48 58 -52 2 -5
10 -8 18 -8 8 0 14 -5 14 -11 0 -5 5 -7 10 -4 6 3 10 2 10 -3 0 -9 207 -151
235 -161 5 -2 21 -12 35 -21 66 -45 422 -215 470 -224 4 -1 80 -28 120 -43 8
-3 20 -7 25 -8 6 -1 30 -9 55 -18 41 -14 125 -35 285 -72 59 -14 162 -31 240
-40 22 -3 65 -8 95 -11 30 -4 106 -7 167 -8 62 -1 113 -4 113 -7 0 -4 10 -5
23 -4 12 1 27 3 34 4 13 1 13 -3 12 146 0 123 0 116 4 168 1 21 0 40 -4 43 -4
2 -4 18 1 35 6 21 5 31 -3 34 -7 2 -80 6 -163 9 -82 3 -157 7 -165 10 -8 2
-36 7 -64 10 -50 5 -96 13 -125 19 -8 2 -37 8 -65 12 -57 10 -64 12 -67 15 -2
1 -10 3 -18 5 -70 15 -107 25 -190 50 -30 9 -64 20 -75 25 -11 5 -58 23 -105
40 -76 29 -327 147 -340 160 -3 3 -21 14 -40 24 -62 34 -270 174 -290 196 -3
3 -27 23 -55 45 -113 90 -268 244 -365 365 -19 23 -46 57 -60 74 -14 17 -48
65 -75 106 -28 41 -52 77 -55 80 -22 20 -158 284 -199 385 -18 44 -36 89 -41
100 -11 25 -68 205 -74 236 -3 13 -7 34 -10 47 -14 57 -17 69 -22 102 -6 42
-12 75 -14 75 -1 0 -3 14 -5 30 -2 17 -6 50 -9 75 -17 123 -21 540 -5 540 3 0
5 9 4 21 -1 17 6 67 31 219 38 229 174 576 315 802 27 44 49 84 49 89 0 5 4 9
9 9 5 0 12 8 15 18 3 9 17 30 31 47 15 16 35 44 46 62 11 18 25 33 30 33 5 0
9 5 9 11 0 6 6 16 13 23 6 7 32 37 57 66 52 62 183 194 259 262 70 64 276 218
290 218 6 0 11 4 11 8 0 5 12 15 28 23 15 8 29 17 32 20 5 5 75 45 190 106
135 73 408 177 575 219 38 10 207 43 240 48 22 3 60 8 85 12 86 12 106 14 278
19 95 3 176 6 180 6 4 1 9 1 12 0 8 -2 535 -3 545 0 6 1 12 1 15 0 20 -7 130
-4 130 3 0 6 5 5 11 -1 8 -8 20 -8 34 -3 13 5 26 6 29 2 6 -5 76 -7 101 -2 6
1 15 2 20 1 40 -6 475 -4 475 2 0 4 8 4 17 -2 10 -5 26 -5 39 -1 12 5 25 6 28
3 5 -5 197 -7 221 -3 6 1 15 2 20 1 14 -3 208 -3 220 -1 6 1 12 2 15 1 8 -2
535 -3 545 0 6 1 12 1 15 0 20 -7 130 -4 130 4 0 5 5 4 11 -2 8 -8 20 -8 34
-3 13 5 26 6 29 2 6 -5 76 -7 101 -2 6 1 13 2 18 0 8 -2 27 -2 262 -1 l165 1
0 215 0 215 -1794 0 c-986 -1 -1796 -3 -1798 -6z"/>
<path d="M8790 8563 c0 -4 -93 -8 -208 -9 -195 -1 -325 -7 -383 -19 -14 -2
-43 -6 -66 -8 -22 -2 -44 -6 -49 -9 -5 -3 -31 -9 -59 -13 -49 -8 -57 -10 -72
-15 -5 -1 -12 -3 -18 -5 -5 -1 -12 -3 -15 -4 -3 -2 -18 -5 -33 -7 -104 -17
-560 -214 -596 -258 -7 -9 -18 -16 -23 -16 -12 0 -178 -114 -224 -155 -204
-178 -287 -265 -400 -420 -64 -87 -141 -211 -179 -290 -17 -33 -34 -63 -38
-66 -5 -3 -8 -9 -8 -13 1 -3 -6 -23 -15 -44 -66 -155 -141 -401 -149 -497 -2
-16 -4 -30 -5 -30 -4 0 -10 -44 -16 -105 -8 -81 -11 -400 -4 -400 3 0 5 -17 6
-38 0 -38 11 -126 19 -152 3 -8 7 -31 9 -50 26 -185 147 -494 275 -699 28 -45
51 -84 51 -87 0 -2 6 -12 14 -21 8 -10 47 -60 86 -110 39 -51 76 -93 82 -93 6
0 9 -2 6 -5 -10 -10 213 -226 287 -278 16 -12 36 -27 43 -34 7 -7 26 -20 42
-30 17 -9 30 -21 30 -25 0 -4 6 -8 13 -8 7 0 23 -9 35 -20 12 -11 24 -20 28
-20 4 0 34 -17 68 -38 87 -55 279 -146 361 -172 22 -7 44 -16 49 -21 6 -5 20
-9 31 -9 12 0 25 -3 29 -7 3 -4 12 -8 19 -9 7 -1 46 -11 87 -22 176 -48 308
-67 513 -77 111 -5 114 -4 108 37 -2 15 -1 65 2 101 1 21 0 40 -4 43 -4 2 -4
17 -1 32 4 15 7 34 6 42 -1 8 -2 29 -3 46 l-1 31 -72 2 c-76 1 -193 9 -193 11
0 1 -11 3 -25 5 -53 5 -124 16 -130 20 -4 2 -20 7 -36 10 -75 13 -88 16 -96
21 -4 3 -16 7 -26 9 -28 5 -172 55 -222 77 -80 35 -225 109 -241 124 -8 8 -19
14 -23 14 -11 0 -134 87 -214 153 -92 74 -285 267 -268 267 3 0 -6 11 -19 25
-33 37 -125 171 -125 184 0 6 -4 11 -10 11 -5 0 -10 6 -10 14 0 7 -7 19 -15
26 -9 7 -13 15 -11 18 3 3 -3 17 -12 31 -32 46 -136 295 -139 331 -1 10 -24
95 -30 110 -3 8 -7 32 -9 53 -2 20 -5 41 -8 46 -7 11 -19 114 -20 178 -1 29
-3 53 -6 53 -6 0 -5 54 5 193 10 138 11 149 18 172 3 11 8 36 11 56 3 19 12
62 21 95 9 32 18 67 20 76 2 9 9 26 15 37 6 12 9 21 6 21 -5 0 6 29 40 105 9
22 18 42 19 45 1 3 8 20 14 38 7 17 18 32 24 32 6 0 8 3 4 6 -7 7 51 117 65
122 4 2 6 8 2 13 -3 5 0 9 5 9 6 0 11 7 11 15 0 8 5 15 10 15 6 0 10 5 10 10
0 10 68 107 94 136 6 7 22 27 36 44 48 63 217 227 295 286 51 39 174 124 179
124 2 0 33 17 67 38 134 80 326 155 501 196 124 30 193 41 308 51 36 3 838 6
1783 6 l1717 0 0 168 0 167 -50 0 c-27 -1 -50 3 -50 9 0 6 -3 6 -8 0 -9 -13
-340 -13 -361 -1 -9 6 -12 5 -8 -1 8 -12 -133 -11 -152 2 -9 5 -12 4 -8 -2 8
-12 -133 -11 -152 2 -9 5 -12 4 -8 -2 3 -5 -27 -9 -78 -9 -46 1 -81 4 -78 9 2
4 -1 7 -6 7 -6 0 -11 -4 -11 -8 0 -12 -244 -9 -252 3 -5 7 -8 6 -8 -1 0 -12
-188 -12 -208 0 -7 4 -12 3 -12 -1 0 -13 -243 -10 -252 2 -5 7 -8 6 -8 -1 0
-12 -188 -12 -208 0 -7 4 -12 3 -12 -1 0 -11 -441 -10 -459 1 -9 6 -12 5 -8
-1 8 -12 -133 -11 -152 2 -9 5 -12 4 -8 -2 8 -12 -133 -11 -152 2 -9 5 -12 4
-8 -2 8 -12 -133 -11 -152 2 -9 5 -12 4 -8 -2 7 -11 -143 -11 -161 1 -7 4 -12
4 -12 -1z"/>
<path d="M8567 7923 c-3 -3 -61 -7 -129 -8 -115 -3 -169 -8 -243 -21 -16 -3
-39 -7 -50 -9 -40 -7 -80 -16 -100 -22 -11 -4 -22 -7 -25 -8 -3 -1 -32 -9 -65
-20 -33 -10 -63 -18 -67 -17 -5 1 -8 -2 -8 -8 0 -5 -7 -10 -16 -10 -23 0 -199
-87 -279 -138 -240 -153 -447 -377 -569 -615 -38 -75 -77 -163 -78 -177 -1 -3
-9 -29 -19 -58 -23 -67 -47 -164 -54 -217 -15 -119 -18 -158 -18 -235 0 -160
21 -305 64 -440 12 -36 22 -69 23 -75 1 -5 13 -35 27 -65 13 -30 23 -58 21
-62 -1 -5 2 -8 8 -8 6 0 9 -4 8 -8 -3 -9 113 -212 134 -233 7 -8 26 -31 41
-52 16 -20 39 -50 52 -65 14 -15 29 -31 34 -37 23 -26 141 -135 181 -167 150
-119 391 -245 545 -285 6 -1 44 -11 85 -22 41 -11 97 -23 124 -27 27 -3 58 -8
70 -11 12 -2 73 -7 137 -10 132 -6 119 -16 119 97 -1 36 0 72 0 80 2 31 0 84
-3 87 -2 1 -46 5 -97 8 -52 3 -108 8 -125 11 -160 29 -171 32 -240 55 -140 48
-337 153 -401 213 -6 6 -28 24 -48 40 -74 58 -236 239 -236 264 0 6 -4 12 -8
14 -24 10 -117 198 -150 303 -20 61 -31 103 -38 143 -2 12 -7 34 -10 50 -9 35
-13 344 -6 357 3 5 7 23 9 40 8 73 63 256 85 282 6 7 7 13 3 13 -4 0 -1 7 6
16 7 9 15 25 16 37 2 12 7 24 12 27 5 3 21 28 36 55 89 162 295 371 455 461
19 10 41 25 48 32 8 7 17 10 22 7 5 -3 10 -2 12 3 3 8 137 71 165 77 10 2 45
12 78 23 59 19 130 35 210 48 22 4 821 8 1775 10 954 1 1739 3 1743 3 4 1 6
61 5 134 l-3 132 -25 3 c-14 1 -31 2 -37 2 -14 0 -136 0 -155 0 -7 0 -49 -1
-93 -3 -44 -1 -86 1 -92 6 -7 5 -13 6 -13 1 0 -11 -170 -12 -187 -1 -7 5 -13
4 -13 0 0 -5 -15 -8 -32 -6 -50 6 -51 6 -80 0 -18 -4 -28 -1 -28 6 0 8 -3 8
-8 2 -8 -12 -101 -13 -119 -2 -7 5 -13 5 -13 0 0 -10 -171 -10 -187 0 -7 5
-13 4 -13 0 0 -5 -15 -8 -32 -6 -50 6 -51 6 -80 0 -18 -4 -28 -1 -28 6 0 8 -3
8 -8 2 -8 -12 -101 -13 -119 -2 -7 5 -13 5 -13 0 0 -10 -171 -10 -187 0 -7 5
-13 4 -13 0 0 -5 -15 -8 -32 -6 -50 6 -51 6 -80 0 -18 -4 -28 -1 -28 6 0 8 -3
8 -8 2 -8 -12 -101 -13 -119 -2 -7 5 -13 5 -13 0 0 -10 -171 -10 -187 0 -7 5
-13 4 -13 0 0 -5 -15 -8 -32 -6 -50 6 -51 6 -80 0 -18 -4 -28 -1 -28 6 0 8 -3
8 -8 2 -8 -12 -101 -13 -119 -2 -7 5 -13 5 -13 0 0 -10 -171 -10 -187 0 -7 5
-13 4 -13 0 0 -5 -15 -8 -32 -6 -50 6 -51 6 -80 0 -18 -4 -28 -1 -28 6 0 8 -3
8 -8 2 -4 -6 -54 -9 -127 -8 -66 2 -126 3 -132 3 -28 0 -144 0 -155 0 -7 0
-40 -1 -73 -3 -33 -1 -67 1 -76 5 -9 4 -19 5 -22 1z"/>
<path d="M8617 7390 c-9 -12 -31 -16 -92 -16 -105 -1 -225 -10 -232 -18 -4 -3
-14 -6 -22 -6 -33 0 -213 -63 -261 -91 -8 -5 -25 -13 -36 -18 -23 -10 -142
-90 -169 -113 -51 -44 -132 -128 -169 -177 -72 -95 -155 -252 -159 -302 -1
-10 -4 -19 -8 -19 -4 0 -10 -17 -14 -37 -5 -21 -10 -45 -12 -53 -2 -8 -5 -29
-7 -46 -1 -17 -5 -35 -8 -40 -9 -15 -2 -300 8 -315 5 -8 9 -21 9 -29 2 -44 90
-267 115 -290 3 -3 23 -32 45 -64 78 -117 219 -240 365 -319 71 -39 230 -101
238 -92 3 2 10 1 17 -5 6 -5 27 -12 46 -14 19 -3 45 -7 59 -11 14 -3 64 -7
111 -10 l87 -5 -8 34 c-4 19 -4 39 0 46 6 10 6 62 -1 80 -1 3 0 10 1 15 6 26
3 183 -4 193 -4 7 -3 12 1 12 5 0 7 15 5 33 -2 17 -3 41 -3 52 0 11 1 49 0 85
0 36 0 72 1 80 0 8 0 62 0 120 -1 117 -1 111 3 163 1 21 -1 41 -5 43 -5 3 -5
10 -2 16 4 6 6 54 5 107 -2 107 -2 101 2 154 1 21 -1 41 -5 43 -5 3 -5 10 -2
16 4 6 6 54 5 107 -1 53 -2 101 -1 106 0 6 1 36 2 68 2 31 0 57 -4 57 -4 0 -5
7 -1 15 3 9 13 15 22 14 9 -1 21 0 26 1 23 4 136 0 145 -5 6 -3 10 -1 10 6 0
8 3 9 13 0 8 -6 16 -9 19 -6 7 7 177 9 184 2 3 -3 18 -2 32 2 15 4 39 4 55 0
15 -4 27 -4 27 -1 0 6 114 7 130 1 3 -1 9 0 15 1 17 3 129 1 158 -3 15 -2 29
-1 31 2 3 4 22 5 43 4 69 -5 104 -5 110 0 3 3 15 2 27 -3 13 -4 28 -5 35 0 7
4 28 4 47 0 21 -5 34 -4 34 2 0 7 5 6 13 -1 8 -6 16 -9 19 -6 7 7 177 9 184 2
3 -3 18 -2 32 2 15 4 39 4 55 0 15 -4 27 -4 27 -1 0 6 114 7 130 1 3 -1 9 0
15 1 17 3 129 1 158 -3 15 -2 29 -1 31 2 3 4 22 5 43 4 69 -5 104 -5 110 0 3
3 15 2 27 -3 13 -4 28 -5 35 0 7 4 28 4 47 0 21 -5 34 -4 34 2 0 7 5 6 13 -1
8 -6 16 -9 19 -6 7 7 177 9 184 2 3 -3 18 -2 32 2 15 4 39 4 55 0 15 -4 27 -4
27 -1 0 6 114 7 130 1 3 -1 9 0 15 1 17 3 129 1 158 -3 15 -2 29 -1 31 2 3 4
22 5 43 4 69 -5 104 -5 110 0 3 3 15 2 27 -3 13 -4 28 -5 35 0 7 4 28 4 47 0
21 -5 34 -4 34 2 0 7 5 6 13 -1 8 -6 16 -9 19 -6 6 6 166 9 188 4 13 -3 15 27
18 222 l2 225 -1605 0 c-1465 1 -1607 -1 -1618 -16z"/>
</g>
</svg>
