<?xml version="1.0" encoding="utf-8"?>
<!-- Generator: Adobe Illustrator 24.1.2, SVG Export Plug-In . SVG Version: 6.00 Build 0)  -->
<svg version="1.1" id="Layer_1" xmlns="http://www.w3.org/2000/svg" xmlns:xlink="http://www.w3.org/1999/xlink" x="0px" y="0px"
	 viewBox="0 0 78.3 53.1" style="enable-background:new 0 0 78.3 53.1;" xml:space="preserve">
<style type="text/css">
	.st0{fill:#D90E3E;}
	.st1{fill:none;stroke:#FFFFFF;stroke-width:2;stroke-linecap:round;}
</style>
<circle class="st0" cx="39.2" cy="18" r="18"/>
<path class="st1" d="M39.2,9v13"/>
<path class="st1" d="M34.2,18l5,5l5-5"/>
<path class="st1" d="M47.2,27h-16"/>
<path d="M7.7,48.9c0.6-0.4,0.9-0.8,0.9-1.5v-0.1c0-0.7-0.4-1.3-1.1-1.8c-0.7-0.4-1.7-0.6-3-0.6c-2.9,0-4.5,1.2-4.5,3.4v0.1h2.1v-0.1
	c0-0.5,0.2-0.9,0.5-1.2c0.4-0.2,0.9-0.4,1.8-0.4c1.3,0,2,0.2,2,0.7v0.1c0,0.2-0.1,0.4-0.4,0.4c-0.2,0.1-0.7,0.1-1.3,0.1H3.2v1.7h1.6
	c0.7,0,1.2,0,1.5,0.1c0.2,0.1,0.4,0.2,0.4,0.4v0.1c0,0.5-0.7,0.7-2,0.7c-1.8,0-2.5-0.5-2.5-1.5v-0.1H0v0.1c0,2.3,1.6,3.4,4.6,3.4
	c1.3,0,2.4-0.2,3.1-0.7c0.8-0.4,1.1-1,1.1-1.8v-0.1C8.8,49.8,8.5,49.3,7.7,48.9z M12.2,45.1l-3.4,7.5v0.3h2.1l0.6-1.5h3.7l0.6,1.5
	h2.1v-0.3l-3.4-7.5H12.2z M13.4,47.1l1.1,2.6h-2.2L13.4,47.1z M20.7,52.9v-6h4.4v-1.9h-6.5v7.9H20.7z M28,52.9v-2.6h2.9
	c1,0,1.7-0.2,2.3-0.7c0.5-0.5,0.8-1.1,0.8-1.9v-0.1c0-0.8-0.3-1.4-0.8-1.9c-0.5-0.5-1.3-0.7-2.3-0.7h-5.1v7.9H28z M28,46.9h2.9
	c0.7,0,1,0.2,1,0.7v0.1c0,0.5-0.3,0.8-1,0.8H28V46.9z M38.7,49.2l-2.3-4.2h-2.2v0.3l3.3,5.6c-0.1,0-0.2,0-0.4,0h-1.9v1.9h1.9
	c0.7,0,1.2-0.1,1.6-0.4c0.4-0.3,0.8-0.8,1.2-1.5l3-5.6v-0.3h-2.2L38.7,49.2z M50.3,48.9c0.6-0.4,0.9-0.8,0.9-1.5v-0.1
	c0-0.7-0.4-1.3-1.1-1.8c-0.7-0.4-1.7-0.6-3-0.6c-2.9,0-4.5,1.2-4.5,3.4v0.1h2.1v-0.1c0-0.5,0.2-0.9,0.5-1.2c0.4-0.2,0.9-0.4,1.8-0.4
	c1.3,0,2,0.2,2,0.7v0.1c0,0.2-0.1,0.4-0.4,0.4c-0.2,0.1-0.7,0.1-1.3,0.1h-1.6v1.7h1.6c0.7,0,1.2,0,1.5,0.1c0.2,0.1,0.4,0.2,0.4,0.4
	v0.1c0,0.5-0.7,0.7-2,0.7c-1.8,0-2.5-0.5-2.5-1.5v-0.1h-2.1v0.1c0,2.3,1.6,3.4,4.6,3.4c1.3,0,2.4-0.2,3.1-0.7c0.8-0.4,1.1-1,1.1-1.8
	v-0.1C51.5,49.8,51.1,49.3,50.3,48.9z M54.8,52.9l3.9-4.9v4.9h2.1v-7.9h-2.1L54.8,50v-4.9h-2.1v7.9H54.8z M66.6,52.9v-6h2.9v-1.9h-8
	V47h2.9v6H66.6z M75.2,52.9c2,0,3.1-0.9,3.1-2.6v-0.1c0-1.6-1.1-2.6-3.1-2.6h-2.8v-2.6h-2.1v7.9H75.2z M72.4,49.5h2.7
	c0.7,0,1,0.2,1,0.7v0.1c0,0.5-0.3,0.8-1,0.8h-2.7V49.5z"/>
</svg>
