<svg width="81" height="80" viewBox="0 0 81 80" fill="none" xmlns="http://www.w3.org/2000/svg">
<path d="M80.5003 40.0027C80.5002 32.3566 78.3089 24.8708 74.1861 18.4317C70.0634 11.9926 64.1818 6.87002 57.2379 3.6706C50.294 0.471175 42.5787 -0.671047 35.0058 0.3792C27.4329 1.42945 20.3196 4.62817 14.5082 9.59654C8.6969 14.5649 4.43104 21.0948 2.21584 28.4129C0.000632644 35.7309 -0.0711048 43.5306 2.00912 50.8882C4.08934 58.2458 8.23438 64.853 13.9533 69.9275C19.6723 75.0019 26.7256 78.3309 34.2779 79.5203V51.5593H24.0912V40.0027H34.2779V31.19C34.2779 21.1624 40.2039 15.6271 49.3595 15.6271C52.3593 15.6691 55.352 15.9306 58.3136 16.4094V26.2533H53.2706C48.2987 26.2533 46.7521 29.335 46.7521 32.4998V40.0027H57.8454L56.0676 51.5593H46.7521V79.5144C56.1596 78.0244 64.7269 73.2265 70.9132 65.9837C77.0996 58.7408 80.4991 49.5282 80.5003 40.0027Z" fill="#4676ED"/>
<path d="M56.0677 51.5591L57.8455 39.9966H46.7521V32.4996C46.7521 29.3349 48.2988 26.2531 53.2707 26.2531H58.3137V16.4092C55.352 15.9304 52.3594 15.6689 49.3596 15.627C40.204 15.627 34.278 21.1623 34.278 31.1898V40.0025H24.0913V51.5591H34.278V79.5142C38.4208 80.1621 42.639 80.1621 46.7818 79.5142V51.5591H56.0677Z" fill="white"/>
</svg>
