<svg viewBox="0 0 285 38" fill="none" xmlns="http://www.w3.org/2000/svg">
<path d="M45.4777 37H24.8572L32.5151 1H53.1429L51.542 8.45662H40.2531L38.9433 14.5853H49.0432L47.5006 22.0404H37.3948L35.7939 29.5419H47.08L45.4777 37Z" fill="white"/>
<path d="M69.5407 37H50.5713L58.0443 1H67.1548L61.2866 29.1509H71.1427L69.5407 37Z" fill="white"/>
<path d="M82.2735 37H72.8572L80.5837 1H90L82.2735 37Z" fill="white"/>
<path d="M111.691 37H101.777L100.434 27.0076L94.1323 37H84.8572L96.9161 18.727L93.0161 1H102.163L103.928 10.6491L109.871 1H119.143L107.534 18.8776L111.691 37Z" fill="white"/>
<path d="M9.33445 37H0L7.66056 1H28.2857L26.6846 8.45662H15.3983L14.0883 14.5853H24.1898L22.6469 22.0404H12.5367L9.33445 37Z" fill="white"/>
<path d="M134.326 3.51654L134.324 3.51815C131.159 5.56931 128.66 8.77619 126.754 13.1436L126.754 13.1436L126.751 13.1508L126.288 14.2589L125.999 14.9517H126.75H136.062H136.382L136.516 14.6616L137.004 13.6075C137.747 12.0454 138.81 10.8905 140.187 10.1208C141.571 9.34789 143.301 8.94739 145.4 8.94739C147.568 8.94739 149.106 9.38024 149.971 10.0532C150.394 10.3824 150.65 10.7629 150.759 11.182C150.868 11.6036 150.84 12.1093 150.617 12.7044L150.614 12.7131L150.611 12.7219L150.459 13.1787C150.459 13.1798 150.458 13.1809 150.458 13.182C150.136 14.0994 149.515 14.8928 148.588 15.5354L148.586 15.5369C147.601 16.2276 145.636 17.2411 142.65 18.5821C142.649 18.5823 142.649 18.5824 142.649 18.5825L120.012 28.6577L119.837 28.7356L119.759 28.9104L116.544 36.1001L116.229 36.8042H117H151.034H151.359L151.491 36.5075L154.655 29.3951L154.968 28.6918H154.198H140.077L146.425 25.8868L146.426 25.8867C150.638 24.023 153.869 22.1997 156.126 20.4378C158.39 18.6716 159.905 16.7415 160.614 14.6122C160.614 14.6113 160.615 14.6104 160.615 14.6095L160.869 13.8716C161.55 12.0114 161.715 10.2629 161.335 8.64241C160.954 7.01908 160.036 5.56817 158.624 4.28879C155.796 1.7256 151.641 0.5 146.275 0.5C141.474 0.5 137.489 1.49329 134.326 3.51654ZM200.676 23.7269L200.677 23.7246L202.064 20.5859C202.064 20.5851 202.065 20.5843 202.065 20.5835C203.302 17.8668 203.791 15.3008 203.494 12.8456L203.494 12.8403C203.174 10.4139 202.32 8.29615 200.928 6.44601L200.928 6.44597L200.923 6.43956C199.494 4.60322 197.461 3.16548 194.855 2.08432L194.851 2.08269C192.235 1.02387 189.262 0.5 185.994 0.5C176.201 0.5 168.743 5.33195 164.726 14.2988L164.726 14.2988L164.723 14.3056L163.363 17.4686C162.101 20.1841 161.61 22.7533 161.96 25.2139C162.28 27.6382 163.134 29.7578 164.555 31.5847C165.983 33.4463 167.992 34.8863 170.604 35.9178C173.195 36.9764 176.141 37.5 179.408 37.5C184.378 37.5 188.695 36.3069 192.277 33.9756C195.858 31.6444 198.675 28.1943 200.676 23.7269ZM174.615 16.2573L174.616 16.2562C176.481 12.1498 180.355 9.77201 185.325 9.77201C188.534 9.77201 190.721 10.6494 192.005 12.285C193.274 13.9268 193.408 15.932 192.229 18.467L192.229 18.4669L192.224 18.4787L190.758 21.8541C189.829 23.9865 188.486 25.5625 186.728 26.6106C184.966 27.6614 182.751 28.2022 180.052 28.2022C176.754 28.2022 174.543 27.3445 173.29 25.7861C172.057 24.2544 171.912 22.2298 173.073 19.6312C173.073 19.6305 173.073 19.6298 173.074 19.6292L174.615 16.2573ZM217.16 3.51654L217.158 3.51815C213.993 5.56931 211.494 8.77619 209.588 13.1436L209.588 13.1436L209.585 13.1508L209.122 14.2589L208.833 14.9517H209.584H218.896H219.216L219.35 14.6616L219.836 13.6099C219.837 13.609 219.837 13.6081 219.838 13.6073C220.581 12.0453 221.644 10.8904 223.021 10.1208C224.405 9.34789 226.135 8.94739 228.234 8.94739C230.402 8.94739 231.94 9.38024 232.805 10.0532C233.228 10.3824 233.484 10.7629 233.592 11.182C233.702 11.6036 233.674 12.1093 233.451 12.7044L233.448 12.7131L233.445 12.7219L233.293 13.1787C233.292 13.1799 233.292 13.181 233.292 13.1822C232.97 14.0996 232.349 14.8928 231.422 15.5354L231.42 15.5369C230.435 16.2276 228.47 17.2411 225.483 18.5822C225.483 18.5823 225.483 18.5824 225.483 18.5825L202.846 28.6577L202.671 28.7356L202.593 28.9104L199.377 36.1001L199.063 36.8042H199.834H233.868H234.193L234.325 36.5075L237.489 29.3951L237.802 28.6918H237.032H222.911L229.259 25.8868L229.26 25.8867C233.472 24.023 236.703 22.1997 238.96 20.4378C241.224 18.6714 242.739 16.7411 243.448 14.6115C243.448 14.6109 243.449 14.6102 243.449 14.6095L243.701 13.8763C243.702 13.8748 243.702 13.8733 243.703 13.8718C244.383 12.0115 244.549 10.263 244.169 8.64241C243.788 7.01908 242.87 5.56817 241.458 4.28879C238.63 1.7256 234.475 0.5 229.109 0.5C224.308 0.5 220.323 1.49329 217.16 3.51654ZM256.931 3.51654L256.928 3.51815C253.764 5.56931 251.265 8.77619 249.359 13.1436L249.356 13.1508L248.893 14.2589L248.603 14.9517H249.354H258.667H258.986L259.12 14.6616L259.607 13.6099C259.607 13.609 259.608 13.6081 259.608 13.6072C260.352 12.0453 261.414 10.8904 262.792 10.1208C264.175 9.34789 265.906 8.94739 268.005 8.94739C270.172 8.94739 271.711 9.38024 272.576 10.0532C272.999 10.3824 273.254 10.7629 273.363 11.182C273.472 11.6036 273.444 12.1093 273.222 12.7044L273.218 12.7131L273.215 12.7219L273.063 13.1787C273.063 13.1799 273.063 13.181 273.062 13.1822C272.741 14.0996 272.119 14.8928 271.193 15.5354L271.19 15.5369C270.205 16.2276 268.24 17.2411 265.254 18.5822C265.254 18.5823 265.253 18.5824 265.253 18.5825L242.617 28.6577L242.442 28.7356L242.364 28.9104L239.148 36.1001L238.833 36.8042H239.604H273.638H273.963L274.095 36.5075L277.259 29.3951L277.572 28.6918H276.803H262.682L269.03 25.8868L269.03 25.8867C273.242 24.023 276.473 22.1997 278.731 20.4378C280.994 18.6715 282.509 16.7415 283.219 14.6122C283.219 14.6113 283.219 14.6104 283.219 14.6096L283.472 13.8763C283.472 13.8747 283.473 13.8731 283.473 13.8715C284.154 12.0113 284.319 10.2629 283.939 8.64241C283.558 7.01908 282.64 5.56817 281.229 4.28879L280.893 4.65927L281.229 4.28879C278.4 1.7256 274.246 0.5 268.879 0.5C264.079 0.5 260.093 1.49329 256.931 3.51654Z" stroke="white"/>
</svg>
