<svg width="36" height="36" viewBox="0 0 36 36" fill="none" xmlns="http://www.w3.org/2000/svg">
<g id="settings">
<path id="Combined Shape" d="M30.1325 14.5439L30.4487 13.5952L30.4487 13.5952L30.1325 14.5439ZM27.5789 13.6927L26.6671 14.1033L26.847 14.5028L27.2627 14.6414L27.5789 13.6927ZM26.5189 11.86L25.5392 11.6596L25.4512 12.0895L25.7081 12.4454L26.5189 11.86ZM27.059 9.2207L28.0387 9.42118L27.059 9.2207ZM26.0996 7.08769L26.5996 6.22166V6.22166L26.0996 7.08769ZM23.4002 5.52921L22.9002 6.39523L23.4002 5.52921ZM21.0733 5.76485L21.7368 6.51305L21.7368 6.51305L21.0733 5.76485ZM19.0577 7.55222L18.9581 8.54725L19.3937 8.59081L19.7211 8.30042L19.0577 7.55222ZM16.9422 7.55223L16.2788 8.30043L16.6062 8.59083L17.0418 8.54726L16.9422 7.55223ZM14.9266 5.76485L14.2631 6.51305L14.2631 6.51305L14.9266 5.76485ZM12.5996 5.5292L13.0996 6.39523L12.5996 5.5292ZM9.90027 7.08769L9.40027 6.22166V6.22166L9.90027 7.08769ZM8.94087 9.2207L9.92057 9.02022L9.92057 9.02021L8.94087 9.2207ZM9.481 11.8602L10.2918 12.4455L10.5487 12.0897L10.4607 11.6597L9.481 11.8602ZM8.4211 13.6927L8.73733 14.6414L9.15301 14.5028L9.33292 14.1033L8.4211 13.6927ZM5.86754 14.5439L6.18377 15.4926L6.18377 15.4926L5.86754 14.5439ZM5.86754 21.4556L5.55132 22.4043L5.86754 21.4556ZM8.42126 22.3068L9.33306 21.8962L9.15314 21.4967L8.73749 21.3582L8.42126 22.3068ZM9.48104 24.1391L10.4607 24.3396L10.5487 23.9096L10.2918 23.5538L9.48104 24.1391ZM8.94085 26.7789L7.96115 26.5784L7.96115 26.5784L8.94085 26.7789ZM9.90025 28.9119L10.4002 28.0459L9.90025 28.9119ZM12.5996 30.4704L12.0996 31.3364L12.5996 30.4704ZM14.9266 30.2347L14.2631 29.4865L14.2631 29.4865L14.9266 30.2347ZM16.9426 28.447L17.0421 27.452L16.6066 27.4084L16.2791 27.6988L16.9426 28.447ZM19.0573 28.447L19.7208 27.6988L19.3933 27.4085L18.9578 27.452L19.0573 28.447ZM21.0733 30.2347L21.7368 29.4865L21.0733 30.2347ZM23.4003 30.4704L23.9003 31.3364L23.9003 31.3364L23.4003 30.4704ZM26.0996 28.9119L26.5996 29.7779L26.5996 29.7779L26.0996 28.9119ZM27.059 26.7789L26.0793 26.9794L26.0793 26.9794L27.059 26.7789ZM26.5189 24.1392L25.7081 23.5539L25.4512 23.9097L25.5392 24.3397L26.5189 24.1392ZM27.5787 22.3068L27.2625 21.3582L26.8469 21.4967L26.6669 21.8962L27.5787 22.3068ZM30.1325 21.4556L29.8162 20.5069L29.8162 20.5069L30.1325 21.4556ZM29.8162 15.4926C30.2246 15.6287 30.5 16.0108 30.5 16.4413L32.5 16.4413C32.5 15.15 31.6737 14.0036 30.4487 13.5952L29.8162 15.4926ZM27.2627 14.6414L29.8162 15.4926L30.4487 13.5952L27.8951 12.744L27.2627 14.6414ZM25.7081 12.4454C26.0809 12.9618 26.403 13.5169 26.6671 14.1033L28.4907 13.2821C28.1707 12.5714 27.7807 11.8994 27.3297 11.2747L25.7081 12.4454ZM26.0793 9.02022L25.5392 11.6596L27.4986 12.0605L28.0387 9.42118L26.0793 9.02022ZM25.5996 7.95371C25.9724 8.16893 26.1656 8.59853 26.0793 9.02022L28.0387 9.42118C28.2976 8.1561 27.7179 6.86731 26.5996 6.22166L25.5996 7.95371ZM22.9002 6.39523L25.5996 7.95371L26.5996 6.22166L23.9002 4.66318L22.9002 6.39523ZM21.7368 6.51305C22.0588 6.22748 22.5275 6.18002 22.9002 6.39523L23.9002 4.66318C22.782 4.01753 21.376 4.15991 20.4098 5.01665L21.7368 6.51305ZM19.7211 8.30042L21.7368 6.51305L20.4098 5.01665L18.3942 6.80401L19.7211 8.30042ZM18 8.49961C18.3237 8.49961 18.6433 8.51576 18.9581 8.54725L19.1572 6.55718C18.7763 6.51909 18.3903 6.49961 18 6.49961L18 8.49961ZM17.0418 8.54726C17.3566 8.51576 17.6763 8.49961 18 8.49961L18 6.49961C17.6097 6.49961 17.2236 6.51909 16.8427 6.55719L17.0418 8.54726ZM14.2631 6.51305L16.2788 8.30043L17.6057 6.80402L15.59 5.01665L14.2631 6.51305ZM13.0996 6.39523C13.4724 6.18001 13.9411 6.22747 14.2631 6.51305L15.59 5.01665C14.6239 4.15991 13.2179 4.01753 12.0996 4.66318L13.0996 6.39523ZM10.4003 7.95371L13.0996 6.39523L12.0996 4.66318L9.40027 6.22166L10.4003 7.95371ZM9.92057 9.02021C9.83428 8.59853 10.0275 8.16893 10.4003 7.95371L9.40027 6.22166C8.28198 6.8673 7.7023 8.1561 7.96117 9.42118L9.92057 9.02021ZM10.4607 11.6597L9.92057 9.02022L7.96117 9.42118L8.5013 12.0606L10.4607 11.6597ZM9.33292 14.1033C9.597 13.5169 9.91901 12.9619 10.2918 12.4455L8.67021 11.2748C8.21924 11.8995 7.82931 12.5715 7.50929 13.2821L9.33292 14.1033ZM6.18377 15.4926L8.73733 14.6414L8.10488 12.744L5.55132 13.5952L6.18377 15.4926ZM5.5 16.4413C5.5 16.0108 5.77543 15.6287 6.18377 15.4926L5.55132 13.5952C4.32629 14.0036 3.5 15.15 3.5 16.4413L5.5 16.4413ZM5.5 19.5582L5.5 16.4413L3.5 16.4413L3.5 19.5582L5.5 19.5582ZM6.18377 20.5069C5.77543 20.3708 5.5 19.9887 5.5 19.5582L3.5 19.5582C3.5 20.8495 4.32629 21.9959 5.55132 22.4043L6.18377 20.5069ZM8.73749 21.3582L6.18377 20.5069L5.55132 22.4043L8.10504 23.2555L8.73749 21.3582ZM10.2918 23.5538C9.91909 23.0375 9.59712 22.4825 9.33306 21.8962L7.50947 22.7175C7.82946 23.428 8.21935 24.0999 8.67026 24.7245L10.2918 23.5538ZM9.92055 26.9794L10.4607 24.3396L8.50134 23.9386L7.96115 26.5784L9.92055 26.9794ZM10.4002 28.0459C10.0275 27.8306 9.83426 27.4011 9.92055 26.9794L7.96115 26.5784C7.70228 27.8435 8.28196 29.1323 9.40025 29.7779L10.4002 28.0459ZM13.0996 29.6043L10.4002 28.0459L9.40025 29.7779L12.0996 31.3364L13.0996 29.6043ZM14.2631 29.4865C13.941 29.7721 13.4724 29.8196 13.0996 29.6043L12.0996 31.3364C13.2179 31.982 14.6239 31.8397 15.59 30.9829L14.2631 29.4865ZM16.2791 27.6988L14.2631 29.4865L15.59 30.9829L17.606 29.1952L16.2791 27.6988ZM18 27.4996C17.6764 27.4996 17.3568 27.4835 17.0421 27.452L16.8431 29.4421C17.2238 29.4801 17.6098 29.4996 18 29.4996L18 27.4996ZM18.9578 27.452C18.6431 27.4835 18.3236 27.4996 18 27.4996L18 29.4996C18.3902 29.4996 18.7761 29.4801 19.1568 29.4421L18.9578 27.452ZM21.7368 29.4865L19.7208 27.6988L18.3939 29.1952L20.4099 30.9829L21.7368 29.4865ZM22.9003 29.6043C22.5275 29.8196 22.0588 29.7721 21.7368 29.4865L20.4099 30.9829C21.376 31.8397 22.782 31.982 23.9003 31.3364L22.9003 29.6043ZM25.5996 28.0459L22.9003 29.6043L23.9003 31.3364L26.5996 29.7779L25.5996 28.0459ZM26.0793 26.9794C26.1656 27.401 25.9724 27.8306 25.5996 28.0459L26.5996 29.7779C27.7179 29.1323 28.2976 27.8435 28.0387 26.5784L26.0793 26.9794ZM25.5392 24.3397L26.0793 26.9794L28.0387 26.5784L27.4986 23.9388L25.5392 24.3397ZM26.6669 21.8962C26.4029 22.4826 26.0809 23.0376 25.7081 23.5539L27.3296 24.7246C27.7806 24.1 28.1705 23.4281 28.4905 22.7175L26.6669 21.8962ZM29.8162 20.5069L27.2625 21.3582L27.895 23.2555L30.4487 22.4043L29.8162 20.5069ZM30.5 19.5582C30.5 19.9887 30.2246 20.3708 29.8162 20.5069L30.4487 22.4043C31.6737 21.9959 32.5 20.8495 32.5 19.5582L30.5 19.5582ZM30.5 16.4413L30.5 19.5582L32.5 19.5582L32.5 16.4413L30.5 16.4413Z" fill="#DADADA"/>
<path id="Oval" fill-rule="evenodd" clip-rule="evenodd" d="M15 18C15 19.6569 16.3431 21 18 21C19.6569 21 21 19.6569 21 18C21 16.3431 19.6569 15 18 15C16.3431 15 15 16.3431 15 18Z" fill="#DADADA"/>
</g>
</svg>
