<svg width="60" height="60" viewBox="0 0 60 60" fill="none" xmlns="http://www.w3.org/2000/svg">
<circle cx="30" cy="30" r="30" fill="url(#paint0_linear_133_243)"/>
<path d="M39.8712 18H21.6288C19.5692 18 18 19.5692 18 21.6288V39.8712C18 41.9308 19.5692 43.5 21.6288 43.5H39.8712C41.9308 43.5 43.5 41.9308 43.5 39.8712V21.6288C43.5 19.5692 41.9308 18 39.8712 18ZM30.75 38.4C34.9673 38.4 38.4 35.0654 38.4 31.0442C38.4 30.3577 38.3019 29.5731 38.1058 28.9846H40.2635V39.3808C40.2635 39.8712 39.8712 40.3615 39.2827 40.3615H22.2173C21.7269 40.3615 21.2365 39.9692 21.2365 39.3808V28.8865H23.4923C23.2962 29.5731 23.1981 30.2596 23.1981 30.9462C23.1 35.0654 26.5327 38.4 30.75 38.4ZM30.75 35.4577C28.0038 35.4577 25.8462 33.3 25.8462 30.6519C25.8462 28.0038 28.0038 25.8462 30.75 25.8462C33.4962 25.8462 35.6538 28.0038 35.6538 30.6519C35.6538 33.3981 33.4962 35.4577 30.75 35.4577ZM40.1654 24.9635C40.1654 25.5519 39.675 26.0423 39.0865 26.0423H36.3404C35.7519 26.0423 35.2615 25.5519 35.2615 24.9635V22.3154C35.2615 21.7269 35.7519 21.2365 36.3404 21.2365H39.0865C39.675 21.2365 40.1654 21.7269 40.1654 22.3154V24.9635Z" fill="white"/>
<defs>
<linearGradient id="paint0_linear_133_243" x1="12.75" y1="53.25" x2="52.5" y2="12" gradientUnits="userSpaceOnUse">
<stop stop-color="#EEA054"/>
<stop offset="0.502762" stop-color="#D64763"/>
<stop offset="1" stop-color="#B62A99"/>
</linearGradient>
</defs>
</svg>
