<?xml version="1.0" encoding="utf-8"?>
<!-- Generator: Adobe Illustrator 24.0.0, SVG Export Plug-In . SVG Version: 6.00 Build 0)  -->
<svg version="1.1" id="Layer_1" xmlns="http://www.w3.org/2000/svg" xmlns:xlink="http://www.w3.org/1999/xlink" x="0px" y="0px"
	 viewBox="0 0 385 1080" style="enable-background:new 0 0 385 1080;" xml:space="preserve">
<style type="text/css">
	.st0{fill:#D90E3E;}
	.st1{fill:#FFFFFF;}
	.st2{fill:#1B2D44;}
	.st3{fill:url(#SVGID_1_);}
	.st4{fill:url(#SVGID_2_);}
	.st5{fill:url(#SVGID_3_);}
</style>
<rect x="-742" y="272.7" transform="matrix(0.2079 -0.9781 0.9781 0.2079 -510.4521 235.2735)" class="st0" width="1264.1" height="320.3"/>
<g>
	<path class="st1" d="M179.4,153.1h-17.4l14.3-67.6h38.5l-3,14h-21.1l-2.4,11.5h18.9l-2.9,14h-18.9L179.4,153.1z"/>
	<path class="st1" d="M246.6,153.1h-38.5l14.3-67.6h38.5l-3,14h-21.1l-2.4,11.5h18.9l-2.9,14h-18.9l-3,14.1h21.1L246.6,153.1z"/>
	<path class="st1" d="M291.8,153.1h-36.3l14.3-67.6h17.4L276,138.4h18.9L291.8,153.1z"/>
	<path class="st1" d="M315.4,153.1H298l14.3-67.6h17.4L315.4,153.1z"/>
	<path class="st1" d="M370.1,153.1h-18.3l-2.5-18.8l-11.6,18.8h-17.1l22.3-34.3l-7.2-33.3h16.9l3.3,18.1l11-18.1h17.1l-21.5,33.6
		L370.1,153.1z"/>
	<path class="st2" d="M109.1,170.3c-3.8-1.5-13.3-6.4-22.1-14.6c-7.1-6.6-15.5-17.1-15.5-29.7V73.4h76.1V126
		c0,12.7-8.4,23.2-15.5,29.7c-8.8,8.2-18.3,13.2-22.1,14.6l-0.5,0.2L109.1,170.3z"/>
	<path class="st1" d="M146.2,74.7V126c0,22.6-27.9,39.7-36.7,43.1c-8.8-3.4-36.7-20.5-36.7-43.1V74.7H146.2z M149,72H70.1v54
		c0,5.7,1.6,11.5,4.9,17.1c2.7,4.7,6.4,9.2,11.1,13.6c7.8,7.3,17.1,12.8,22.5,14.9l1,0.4l1-0.4c5.4-2.1,14.7-7.6,22.5-14.9
		c4.7-4.4,8.4-8.9,11.1-13.6c3.2-5.7,4.9-11.4,4.9-17.1V72z"/>
	
		<radialGradient id="SVGID_1_" cx="-575.6052" cy="926.2034" r="1" gradientTransform="matrix(38.1228 0 0 -38.1228 22053.3359 35429.2891)" gradientUnits="userSpaceOnUse">
		<stop  offset="0.17" style="stop-color:#FFFFFF"/>
		<stop  offset="0.29" style="stop-color:#FAFAFB"/>
		<stop  offset="0.44" style="stop-color:#ECECEE"/>
		<stop  offset="0.6" style="stop-color:#D4D4DA"/>
		<stop  offset="0.76" style="stop-color:#B2B4BD"/>
		<stop  offset="0.93" style="stop-color:#888A98"/>
		<stop  offset="1" style="stop-color:#757788"/>
	</radialGradient>
	<path class="st3" d="M123,127.9c-2.4-1.3-4.4-3.3-6-5.6c-1.5-2.3-2.4-4.9-2.7-7.7c-0.3-2.7,0.1-5.5,1.1-8.1c1-2.6,2.6-4.8,4.7-6.6
		c2.3,0.6,4.3,2.1,5.5,4.2c1.2,2.1,1.5,4.5,0.9,6.9l5.2,1.1l3.5-16.4h3.3c-3.2-4.9-7.9-8.7-13.4-10.8s-11.5-2.3-17.2-0.6
		c-5.6,1.7-10.6,5.1-14.1,9.8c-3.5,4.7-5.4,10.4-5.4,16.3c0,1.2,0.1,2.5,0.3,3.7c-4.4,4.2-10,7-15.9,8.3v3.5c0,4.2,1,8.4,2.7,12.3
		c0.4,1,0.9,1.9,1.4,2.9l0.1,0.2c0.5,0.9,1.1,1.8,1.6,2.7l0.2,0.3c1.2,1.8,2.5,3.5,3.9,5.1l0.2,0.2c0.7,0.8,1.4,1.6,2.1,2.4l0.1,0.1
		c0.5,0.5,0.9,0.9,1.4,1.4c5.2-6.5,11.8-11.7,19.3-15.3c7.5-3.6,15.6-5.6,23.9-5.7c-2,3.9-5.1,7.1-8.9,9.3c-1.4,0.8-2.9,1.5-4.4,1.9
		l2.5,7.6c1.7-1.3,3.4-2.7,5-4.2c5.6-5.2,10.3-11.5,11.5-18.1c0-0.1,0-0.2,0-0.4c-4.1-0.5-8.3-0.7-12.4-0.7H123z"/>
	
		<linearGradient id="SVGID_2_" gradientUnits="userSpaceOnUse" x1="90.6274" y1="926.6359" x2="137.8075" y2="953.8762" gradientTransform="matrix(1 0 0 -1 0 1080)">
		<stop  offset="0.19" style="stop-color:#FFFFFF"/>
		<stop  offset="1" style="stop-color:#757788"/>
	</linearGradient>
	<path class="st4" d="M127.5,129.5c-17.2,0-33.9,5.8-47.4,16.5c0.9,1.2,1.7,2.3,2.7,3.4l0.2,0.2c0.7,0.8,1.4,1.6,2.2,2.4l0.1,0.1
		c0.5,0.5,0.9,0.9,1.4,1.4c5.2-6.5,11.8-11.7,19.3-15.3c7.5-3.6,15.6-5.6,23.9-5.7c-2,3.9-5.1,7.1-8.9,9.3c-1.4,0.8-2.9,1.5-4.4,1.9
		l2.5,7.6c1.7-1.3,3.4-2.7,5-4.2c5.3-5,9.9-11,11.3-17.2C132.7,129.6,130.1,129.5,127.5,129.5z"/>
	
		<linearGradient id="SVGID_3_" gradientUnits="userSpaceOnUse" x1="1251.6846" y1="2695.1169" x2="-2409.0552" y2="-2867.0833" gradientTransform="matrix(1 0 0 -1 0 1080)">
		<stop  offset="0.19" style="stop-color:#FFFFFF"/>
		<stop  offset="1" style="stop-color:#757788"/>
	</linearGradient>
	<path class="st5" d="M137.9,95.8c-2.1-2.6-4.8-4.6-7.9-5.8c-3.1-1.2-6.4-1.7-9.7-1.3c-3.3,0.4-6.4,1.6-9.1,3.6
		c-2.7,1.9-4.9,4.5-6.3,7.5c-1.4,3-2.1,6.3-1.9,9.6s1.2,6.5,3,9.3s4.2,5.1,7.1,6.7c2.9,1.6,6.2,2.4,9.5,2.4c0.1,0,0.2,0,0.4,0
		c-2.4-1.4-4.4-3.3-5.9-5.6c-1.5-2.3-2.4-4.9-2.7-7.7c-0.3-2.7,0.1-5.5,1.1-8.1c1-2.6,2.6-4.8,4.7-6.6c2.3,0.6,4.3,2.1,5.5,4.2
		s1.5,4.5,0.9,6.9l5.2,1.1l3.5-16.4L137.9,95.8z"/>
</g>
</svg>
