<svg width="60" height="60" viewBox="0 0 60 60" fill="none" xmlns="http://www.w3.org/2000/svg">
<circle cx="30" cy="30" r="30" fill="#F79A38"/>
<path d="M39.3565 34.1892C40.1436 33.4022 40.256 32.2777 39.5813 31.1533C39.0191 30.2538 38.0072 29.804 36.8828 30.0289C36.433 30.1414 35.9832 30.3662 35.5334 30.7036C32.0478 33.0648 27.3252 32.9524 23.8395 30.5911C23.6147 30.4787 23.3898 30.3662 23.1649 30.2538C21.928 29.6916 20.6912 29.9165 20.0165 31.0409C19.2294 32.1653 19.3419 33.4022 20.3538 34.4141C20.5787 34.639 20.8036 34.7515 20.9161 34.9763L21.0285 35.0888C22.6027 36.3256 24.5142 37.1127 26.9879 37.4501L25.5262 38.9118C24.2893 40.1487 22.94 41.4979 21.7032 42.7348C21.3658 43.0721 20.9161 43.6343 20.9161 44.4214C20.9161 45.4334 21.4783 46.4454 22.4902 46.8951C22.8276 47.12 23.1649 47.12 23.5022 47.12C24.0644 47.12 24.7391 46.8951 25.1888 46.3329C26.8755 44.6463 28.2248 43.297 29.5741 41.9477C29.6865 41.8353 29.6865 41.8353 29.6865 41.8353C29.6865 41.8353 29.7989 41.8353 29.7989 41.9477C30.6985 42.9597 31.7104 43.8592 32.61 44.8712C33.0597 45.321 33.5095 45.7707 33.9593 46.2205C34.5215 46.7827 34.9712 47.0076 35.6459 47.0076C36.6579 47.12 37.7823 46.4454 38.2321 45.4334C38.6818 44.5339 38.4569 43.4095 37.6698 42.7348C36.5454 41.6104 35.421 40.3735 34.1842 39.2491L32.2727 37.3376C33.2846 37.2252 34.409 37.0003 35.421 36.5505C37.1076 35.9883 38.3445 35.2012 39.3565 34.1892Z" fill="white"/>
<path d="M29.6865 31.0409C34.5215 31.0409 38.4569 27.2179 38.4569 22.3829C38.4569 20.0216 37.5574 17.7728 35.8708 16.0862C34.1842 14.3995 32.0478 13.5 29.7989 13.5C24.964 13.5 21.1409 17.4354 21.0285 22.158C21.0285 24.5193 21.928 26.6557 23.6147 28.3423C25.1888 30.1413 27.3252 31.0409 29.6865 31.0409ZM27.2128 19.7967C27.8874 19.1221 28.787 18.7847 29.6865 18.7847C31.7104 18.7847 33.1722 20.3589 33.1722 22.2704C33.1722 24.2944 31.598 25.7561 29.6865 25.7561C27.6625 25.7561 26.2008 24.1819 26.2008 22.2704C26.2008 21.3709 26.5381 20.4714 27.2128 19.7967Z" fill="white"/>
<path d="M39.3565 34.1892C40.1436 33.4022 40.256 32.2777 39.5813 31.1533C39.0191 30.2538 38.0072 29.804 36.8828 30.0289C36.433 30.1414 35.9832 30.3662 35.5334 30.7036C32.0478 33.0648 27.3252 32.9524 23.8395 30.5911C23.6147 30.4787 23.3898 30.3662 23.1649 30.2538C21.928 29.6916 20.6912 29.9165 20.0165 31.0409C19.2294 32.1653 19.3419 33.4022 20.3538 34.4141C20.5787 34.639 20.8036 34.7515 20.9161 34.9763L21.0285 35.0888C22.6027 36.3256 24.5142 37.1127 26.9879 37.4501L25.5262 38.9118C24.2893 40.1487 22.94 41.4979 21.7032 42.7348C21.3658 43.0721 20.9161 43.6343 20.9161 44.4214C20.9161 45.4334 21.4783 46.4454 22.4902 46.8951C22.8276 47.12 23.1649 47.12 23.5022 47.12C24.0644 47.12 24.7391 46.8951 25.1888 46.3329C26.8755 44.6463 28.2248 43.297 29.5741 41.9477C29.6865 41.8353 29.6865 41.8353 29.6865 41.8353C29.6865 41.8353 29.7989 41.8353 29.7989 41.9477C30.6985 42.9597 31.7104 43.8592 32.61 44.8712C33.0597 45.321 33.5095 45.7707 33.9593 46.2205C34.5215 46.7827 34.9712 47.0076 35.6459 47.0076C36.6579 47.12 37.7823 46.4454 38.2321 45.4334C38.6818 44.5339 38.4569 43.4095 37.6698 42.7348C36.5454 41.6104 35.421 40.3735 34.1842 39.2491L32.2727 37.3376C33.2846 37.2252 34.409 37.0003 35.421 36.5505C37.1076 35.9883 38.3445 35.2012 39.3565 34.1892Z" fill="white"/>
</svg>
