<?xml version="1.0" encoding="utf-8"?>
<!-- Generator: Adobe Illustrator 24.1.2, SVG Export Plug-In . SVG Version: 6.00 Build 0)  -->
<svg version="1.1" id="Layer_1" xmlns="http://www.w3.org/2000/svg" xmlns:xlink="http://www.w3.org/1999/xlink" x="0px" y="0px"
	 viewBox="0 0 384 384" style="enable-background:new 0 0 384 384;" xml:space="preserve">
<style type="text/css">
	.st0{fill:#FFFFFF;}
</style>
<path class="st0" d="M201.8,0c2.4,0.7,4.8,1.3,7.1,2C227.5,7.6,240,24.6,240,44.5c0,68.3,0,136.6,0,205c0,29.2-0.4,58.5,0.1,87.7
	c0.5,25.3-17.4,43.5-37.4,46.3c-0.3,0-0.6,0.4-0.9,0.5c-54.5,0-109,0-163.5,0c-0.8-0.3-1.6-0.6-2.4-0.8
	c-13.3-2.8-23.6-9.9-30.1-21.9C3.1,356.5,1.9,351,0,345.8c0-102.5,0-205,0-307.5c0.3-0.8,0.6-1.6,0.8-2.4C4,20.8,12.6,10,26.6,3.7
	c3.7-1.6,7.7-2.5,11.6-3.7C92.8,0,147.3,0,201.8,0z M24,287.7c64.2,0,128,0,192,0c0-1.6,0-3,0-4.3c0-79,0-158,0-236.9
	C216,32,208,24,193.5,24c-48.9,0-97.7,0-146.6,0C31.9,24,24,31.8,24,46.8c0,78.9,0,157.7,0,236.6C24,284.7,24,286.1,24,287.7z
	 M24,312.1c0,1.8,0,3.1,0,4.5c0,8.2-0.2,16.5,0.1,24.7c0.4,10.4,9.2,18.6,19.9,18.6c50.7,0.1,101.5,0.1,152.2,0
	c11.1,0,19.6-8.7,19.8-19.8c0.1-5.4,0-10.7,0-16.1c0-3.9,0-7.9,0-11.9C151.8,312.1,88.1,312.1,24,312.1z"/>
<path class="st0" d="M264.8,384c-0.6-0.4-1.2-0.8-1.8-1.2c-5.5-3-7.9-8-6.5-13.7c1.4-5.6,5.9-9.1,12.1-9.1c23.2,0,46.5,0,69.7-0.1
	c2.8,0,5.8-0.4,8.4-1.2c8.3-2.8,13.3-10.3,13.3-19.7c0-31.1,0-62.2,0-93.3c0-18.7,0-37.5,0-56.2c0-13.2-8.4-21.5-21.6-21.5
	c-23.2,0-46.5,0-69.7,0c-8.7,0-14.4-7.3-12.2-15.3c1.4-4.9,5.7-8.6,11-8.6c25.2-0.1,50.5-0.5,75.7,0.2c19.6,0.5,36.1,15.9,40.1,35.6
	c0.2,0.8,0.5,1.6,0.8,2.4c0,54.5,0,109,0,163.5c-0.3,0.8-0.6,1.6-0.8,2.4c-2.4,11.6-8.1,21.4-18.1,27.6c-5.9,3.7-12.9,5.5-19.4,8.2
	C318.8,384,291.8,384,264.8,384z"/>
<path class="st0" d="M320.9,63.6c-2.6-12.6-15.7-24.5-29.2-26.8c-2.6-0.4-5.2-0.6-7.8-0.8c-7-0.4-12-5.6-11.8-12.4
	c0.2-6.6,5.3-11.5,12.2-11.6c28.8-0.5,54.2,20,61.4,49.3c0.5,2.1,1,4.3,1.6,6.9c1.5-1.7,2.7-3,3.9-4.3c4.7-4.8,11.6-5.2,16.6-1.1
	c5,4.3,5.8,11.5,1.4,16.8c-7.3,8.7-14.7,17.4-22.2,25.9c-1.9,2.2-4.2,4.4-6.8,5.6c-4.8,2.3-10.1,0.6-13.8-3.7
	c-7.4-8.6-14.7-17.3-22.1-26c-5.3-6.2-5.7-12.5-1.3-17.5C307.6,59,313.8,58.7,320.9,63.6z"/>
</svg>
