<?xml version="1.0" encoding="utf-8"?>
<!-- Generator: Adobe Illustrator 24.0.0, SVG Export Plug-In . SVG Version: 6.00 Build 0)  -->
<svg version="1.1" id="Layer_1" xmlns="http://www.w3.org/2000/svg" xmlns:xlink="http://www.w3.org/1999/xlink" x="0px" y="0px"
	 viewBox="0 0 48 28" style="enable-background:new 0 0 48 28;" xml:space="preserve">
<path d="M42,0H6C4.9,0,4,0.9,4,2v18c0,1.1,0.9,2,2,2h36c1.1,0,2-0.9,2-2V2C44,0.9,43.1,0,42,0z M6,20V2l36,0l0,18L6,20z"/>
<path d="M33,28H15c-0.6,0-1-0.4-1-1s0.4-1,1-1h18c0.6,0,1,0.4,1,1S33.6,28,33,28z"/>
<path d="M28,28h-8v-8h8V28z M22,26h4v-4h-4V26z"/>
</svg>
