<svg width="60" height="60" viewBox="0 0 60 60" fill="none" xmlns="http://www.w3.org/2000/svg">
<circle cx="30" cy="30" r="30" fill="#55ACE3"/>
<path d="M45.9 22.35C44.85 22.8 43.65 23.1 42.45 23.25C43.65 22.5 44.7 21.3 45.15 19.95C43.95 20.7 42.75 21.15 41.25 21.45C40.2 20.25 38.55 19.5 36.9 19.5C33.6 19.5 30.9 22.2 30.9 25.5C30.9 25.95 30.9 26.4 31.05 26.85C26.1 26.55 21.6 24.15 18.6 20.55C18.15 21.45 17.85 22.5 17.85 23.55C17.85 25.65 18.9 27.45 20.55 28.5C19.5 28.5 18.6 28.2 17.85 27.75C17.85 30.6 19.95 33.15 22.65 33.6C22.2 33.75 21.6 33.75 21 33.75C20.55 33.75 20.25 33.75 19.8 33.6C20.55 36 22.8 37.8 25.5 37.8C23.4 39.45 20.85 40.35 18 40.35C17.55 40.35 17.1 40.35 16.5 40.2C19.2 41.85 22.35 42.9 25.8 42.9C36.9 42.9 42.9 33.75 42.9 25.8V25.05C44.1 24.6 45.15 23.55 45.9 22.35Z" fill="white"/>
</svg>
