<svg width="60" height="60" viewBox="0 0 60 60" fill="none" xmlns="http://www.w3.org/2000/svg">
<circle cx="30" cy="30" r="30" fill="#7294C7"/>
<path d="M44.7093 37.673C44.7093 37.5485 44.5847 37.5485 44.5847 37.4239C44.0866 36.4277 42.9658 35.1823 41.4714 33.8124C40.7242 33.1898 40.3506 32.6916 40.1015 32.4426C39.7279 31.9444 39.7279 31.5708 39.8524 31.0727C39.977 30.6991 40.4751 30.0764 41.3468 28.9556C41.845 28.3329 42.094 27.9593 42.4676 27.5857C44.3356 25.095 45.2074 23.4761 44.9583 22.7289L44.8338 22.6044C44.7093 22.4798 44.5847 22.3553 44.3356 22.3553C44.0866 22.2308 43.713 22.2308 43.3394 22.3553H38.6071C38.4826 22.3553 38.4825 22.3553 38.2335 22.3553C38.1089 22.3553 37.9844 22.3553 37.9844 22.3553H37.8599H37.7353L37.6108 22.4798C37.4863 22.6043 37.4863 22.6043 37.4863 22.7289C36.9881 24.0988 36.3655 25.2196 35.7428 26.4649C35.3692 27.0876 34.9956 27.7103 34.622 28.2084C34.2484 28.7065 33.9993 29.0801 33.7502 29.3292C33.5012 29.5783 33.2521 29.7028 33.1275 29.9519C33.003 30.0764 32.754 30.201 32.754 30.0764C32.6294 30.0764 32.5049 30.0764 32.5049 29.9519C32.3803 29.8273 32.2558 29.7028 32.1313 29.5783C32.0068 29.4537 32.0067 29.2047 31.8822 28.9556C31.8822 28.7065 31.8822 28.4575 31.8822 28.3329C31.8822 28.2084 31.8822 27.8348 31.8822 27.5857C31.8822 27.2121 31.8822 26.963 31.8822 26.8385C31.8822 26.4649 31.8822 25.9668 31.8822 25.4686C31.8822 24.9705 31.8822 24.5969 31.8822 24.3478C31.8822 24.0988 31.8822 23.7252 31.8822 23.4761C31.8822 23.1025 31.8822 22.8534 31.8822 22.7289C31.8822 22.6043 31.7577 22.3553 31.7577 22.2307C31.6332 22.1062 31.5086 21.9817 31.3841 21.8571C31.2595 21.7326 31.0105 21.7326 30.8859 21.6081C30.2633 21.4835 29.5161 21.359 28.6443 21.359C26.6518 21.359 25.2819 21.4835 24.7838 21.7326C24.5347 21.8572 24.2856 21.9817 24.1611 22.2307C23.912 22.4798 23.912 22.6044 24.0366 22.6044C24.6592 22.7289 25.1574 22.9779 25.4064 23.3515L25.531 23.6006C25.6555 23.7252 25.6555 23.9742 25.78 24.3478C25.9046 24.7214 25.9046 25.095 25.9046 25.5932C25.9046 26.3404 25.9046 27.0876 25.9046 27.5857C25.9046 28.2084 25.78 28.582 25.78 28.9556C25.78 29.3292 25.6555 29.5783 25.531 29.7028C25.4064 29.9519 25.4064 30.0764 25.2819 30.0764C25.2819 30.0764 25.2819 30.2009 25.1574 30.2009C25.0328 30.2009 24.9083 30.3255 24.6592 30.3255C24.5347 30.3255 24.2856 30.201 24.1611 30.0764C23.912 29.9519 23.663 29.7028 23.5384 29.4537C23.2894 29.2047 23.0403 28.8311 22.7912 28.3329C22.5421 27.8348 22.1685 27.3367 21.9195 26.5894L21.6704 26.0913C21.5459 25.8423 21.2968 25.3441 21.0477 24.7214C20.7987 24.0988 20.5496 23.6006 20.3005 22.978C20.176 22.7289 20.0515 22.6043 19.9269 22.4798H19.8024C19.8024 22.4798 19.6778 22.3553 19.5533 22.3553C19.4288 22.3553 19.3043 22.2307 19.1797 22.2307H14.6965C14.1983 22.2307 13.9493 22.3553 13.8247 22.4798L13.7002 22.6044C13.7002 22.6044 13.7002 22.7289 13.7002 22.8534C13.7002 22.978 13.7002 23.1025 13.8247 23.3515C14.4474 24.846 15.1946 26.3404 15.9418 27.8348C16.689 29.2047 17.4362 30.45 17.9344 31.3218C18.557 32.1935 19.0552 33.0652 19.6778 33.8124C20.3005 34.5597 20.6741 35.0578 20.7987 35.3069C21.0477 35.5559 21.1722 35.6805 21.2968 35.805L21.6704 36.1786C21.9195 36.4277 22.2931 36.8013 22.7912 37.1749C23.2893 37.5485 23.912 37.9221 24.5347 38.2957C25.1574 38.6693 25.9046 38.9184 26.6518 39.1674C27.5235 39.4165 28.2707 39.541 29.0179 39.4165H30.8859C31.2595 39.4165 31.5086 39.292 31.7577 39.0429L31.8822 38.9183C31.8822 38.7938 32.0067 38.7938 32.0067 38.6693C32.0067 38.5447 32.0067 38.4202 32.0067 38.1712C32.0067 37.673 32.0068 37.2994 32.1313 36.9258C32.2558 36.5522 32.2558 36.3031 32.3804 36.0541C32.5049 35.805 32.6294 35.6805 32.754 35.5559C32.8785 35.4314 33.003 35.3069 33.003 35.3069H33.1275C33.3766 35.1823 33.7502 35.3069 33.9993 35.5559C34.3729 35.805 34.7465 36.1786 34.9956 36.5522C35.2446 36.9258 35.6183 37.2994 36.1164 37.7975C36.6145 38.2957 36.9881 38.6693 37.2372 38.7938L37.6108 39.0429C37.8599 39.1674 38.1089 39.292 38.4826 39.4165C38.8562 39.541 39.1052 39.541 39.3543 39.541L43.5885 39.4165C43.9621 39.4165 44.3357 39.292 44.5847 39.1674C44.8338 39.0429 44.9583 38.9184 44.9583 38.6693C44.9583 38.5447 44.9583 38.2957 44.9583 38.1712C44.7092 37.9221 44.7093 37.7975 44.7093 37.673Z" fill="white"/>
</svg>
